# xmcd
#
# Track frame offsets: 
#        150
#        19679
#        38679
#        59471
#        78583
#        101730
#        124662
#        143899
#        161171
#        184273
#
# Disc length: 2733 seconds
#
# Revision: 0
# Processed by: cddbd v1.5.2PL0 Copyright (c) Steve Scherf et al.
# Submitted via: ExactAudioCopyFreeDBPlugin 1.0
#
DISCID=860aab0a
DTITLE=テレサ・テン - テレサ・テン_’91悲しみと踊らせて~
DYEAR=1991
DGENRE=歌謡曲
TTITLE0=悲しみと踊らせて
TTITLE1=冬のひまわり
TTITLE2=ファイアー・オブ・ラヴ
TTITLE3=道化師(ピエロ)
TTITLE4=カシオペア
TTITLE5=トワイライト・タウン
TTITLE6=寝物語を聴かせて
TTITLE7=愛し愛されて
TTITLE8=マイ・ソング
TTITLE9=水の星座
EXTD=
EXTT0=
EXTT1=
EXTT2=
EXTT3=
EXTT4=
EXTT5=
EXTT6=
EXTT7=
EXTT8=
EXTT9=
PLAYORDER=
